<?xml version="1.0" encoding="utf-8"?>
<!-- Generator: Adobe Illustrator 26.0.2, SVG Export Plug-In . SVG Version: 6.00 Build 0)  -->
<svg version="1.1"
	 id="svg5" xmlns:inkscape="http://www.inkscape.org/namespaces/inkscape" xmlns:sodipodi="http://sodipodi.sourceforge.net/DTD/sodipodi-0.dtd" xmlns:svg="http://www.w3.org/2000/svg"
	 xmlns="http://www.w3.org/2000/svg" xmlns:xlink="http://www.w3.org/1999/xlink" x="0px" y="0px" viewBox="0 0 1417.3 526.1"
	 style="enable-background:new 0 0 1417.3 526.1;" xml:space="preserve">
<style type="text/css">
	.st0{fill:#FE0000;}
	.st1{fill:#F1E668;}
	.st2{fill:#FEFEFE;}
	.st3{fill:#0151FE;}
	.st4{fill:#FFEF01;}
	.st5{fill:#4061AD;}
	.st6{fill:#FBB64A;}
	.st7{fill:#F6B7D3;}
	.st8{fill:#ED2824;}
	.st9{fill:#0B0B0B;}
	.st10{fill:#5CE7EC;}
	.st11{fill:#FEE211;}
	.st12{fill:#FFFFFF;}
	.st13{opacity:0.5;fill:none;stroke:#231F20;stroke-width:0.3;stroke-miterlimit:10;}
</style>
<sodipodi:namedview  bordercolor="#666666" borderopacity="1.0" fit-margin-bottom="0" fit-margin-left="0" fit-margin-right="0" fit-margin-top="0" id="namedview7" inkscape:current-layer="layer4" inkscape:cx="1238.2434" inkscape:cy="264.87864" inkscape:document-units="mm" inkscape:pagecheckerboard="false" inkscape:pageopacity="1" inkscape:pageshadow="2" inkscape:showpageshadow="false" inkscape:window-height="1136" inkscape:window-maximized="0" inkscape:window-width="1898" inkscape:window-x="962" inkscape:window-y="32" inkscape:zoom="0.38885732" pagecolor="#ffffff" showgrid="false" width="50mm">
	</sodipodi:namedview>
<g>
	<path class="st0" d="M1316.8,228.6c-0.9,0-1.8,0-2.8,0c0,1,0,1.9,0,2.8c-1,0-1.9,0-2.8,0c0,4.7,0,9.4,0,14.2c-7.6,0-15.1,0-22.7,0
		c0-1.9,0-3.7,0-5.6c-1.9,0-3.8,0-5.7,0c0-7.6,0-15.1,0-22.7c1.9,0,3.7,0,5.6,0c0-1.9,0-3.8,0-5.7c0.2,0,0.4,0,0.5,0
		c7.3,0,14.6,0,21.9,0c0.1,0,0.2,0,0.4,0c0,1.9,0,3.8,0,5.7c-1.9,0-3.8,0-5.6,0c0,1.9,0,3.8,0,5.6c1.9,0,3.8,0,5.6,0
		c0-1.9,0-3.8,0-5.6c1.9,0,3.8,0,5.7,0c1.9,0,3.7,0,5.7,0c0,1.9,0,3.8,0,5.7l0,0c-1.9,0-3.8,0-5.7,0
		C1316.8,224.9,1316.8,226.8,1316.8,228.6L1316.8,228.6z M1291.2,234.3c0,1.9,0,3.8,0,5.7c1.9,0,3.8,0,5.6,0c0-1.9,0-3.8,0-5.6
		C1294.9,234.3,1293.1,234.3,1291.2,234.3c0-1.9,0-3.8,0-5.6c-1.9,0-3.8,0-5.6,0c0,1.9,0,3.8,0,5.6
		C1287.5,234.3,1289.4,234.3,1291.2,234.3z"/>
	<path class="st0" d="M1333.8,222.9c3.8,0,7.5,0,11.3,0c0,1.9,0,3.7,0,5.7c1.9,0,3.8,0,5.7,0c0,7.6,0,15.1,0,22.7
		c-1.9,0-3.7,0-5.6,0c0,1.9,0,3.8,0,5.7c-7.6,0-15.1,0-22.7,0c0-1.9,0-3.7,0-5.6c-1.9,0-3.8,0-5.7,0c0-7.6,0-15.2,0-22.8l0,0
		c1.9,0,3.8,0,5.7,0c0-2,0-3.8,0-5.7l0,0c1.9,0,3.8,0,5.7,0c0,3.8,0,7.5,0,11.3c2,0,3.8,0,5.7,0c0-0.3,0-0.5,0-0.7
		C1333.8,230,1333.8,226.5,1333.8,222.9z M1328.1,245.7c0,1.9,0,3.8,0,5.7c1.9,0,3.8,0,5.6,0c0-1.9,0-3.8,0-5.6
		C1331.9,245.7,1330,245.7,1328.1,245.7c0-1.9,0-3.8,0-5.6c-1.9,0-3.8,0-5.6,0c0,1.9,0,3.8,0,5.6
		C1324.4,245.7,1326.3,245.7,1328.1,245.7z"/>
	<path class="st1" d="M1333.8,200.2c0-1.9,0-3.7,0-5.7c3.8,0,7.5,0,11.3,0c0-1.9,0-3.8,0-5.7c3.8,0,7.6,0,11.3,0c0,3.8,0,7.5,0,11.3
		c-3.8,0-7.5,0-11.3,0c0,3.8,0,7.6,0,11.3c-1.9,0-3.7,0-5.6,0c0,1.9,0,3.8,0,5.7c-1.9,0-3.8,0-5.7,0c0,0,0,0,0,0c0-2.5,0-4.9,0-7.4
		c0-1.3,0-2.7,0-4l0,0c1.9,0,3.8,0,5.6,0c0-1.9,0-3.8,0-5.7C1337.5,200.2,1335.7,200.2,1333.8,200.2L1333.8,200.2z"/>
	<path class="st1" d="M1333.8,222.9c0,3.5,0,7.1,0,10.6c0,0.2,0,0.5,0,0.7c-1.9,0-3.7,0-5.7,0c0-3.8,0-7.5,0-11.3c0-1.9,0-3.7,0-5.7
		c1.9,0,3.8,0,5.7,0c0,0,0,0,0,0C1333.8,219.2,1333.8,221.1,1333.8,222.9z"/>
	<path class="st1" d="M1333.8,205.9c-3.8,0-7.5,0-11.3,0c0-1.9,0-3.8,0-5.7c3.8,0,7.6,0,11.3,0l0,0
		C1333.8,202.1,1333.8,204,1333.8,205.9L1333.8,205.9z"/>
	<path class="st1" d="M1316.8,217.2c-1.9,0-3.8,0-5.7,0l0,0c0-1.9,0-3.8,0-5.7c1.9,0,3.8,0,5.7,0l0,0
		C1316.8,213.5,1316.8,215.4,1316.8,217.2z"/>
	<path class="st1" d="M1316.8,211.6c0-1.9,0-3.7,0-5.7c0.4,0,0.7,0,1.1,0c1.3,0,2.5,0,3.8,0c0.5,0,0.7,0.1,0.7,0.7
		c0,1.4,0,2.9,0.1,4.3c0,0.2,0,0.4,0,0.6C1320.5,211.6,1318.7,211.6,1316.8,211.6C1316.8,211.6,1316.8,211.6,1316.8,211.6z"/>
	<path class="st1" d="M1311.1,217.3c0,1.9,0,3.7,0,5.6c-1.9,0-3.7,0-5.6,0c0-1.9,0-3.7,0-5.6
		C1307.3,217.3,1309.2,217.3,1311.1,217.3C1311.1,217.3,1311.1,217.3,1311.1,217.3z"/>
	<path class="st2" d="M1291.2,234.3c-1.9,0-3.7,0-5.7,0c0-1.9,0-3.7,0-5.6c1.9,0,3.7,0,5.6,0
		C1291.2,230.5,1291.2,232.4,1291.2,234.3L1291.2,234.3z"/>
	<path class="st2" d="M1291.2,234.3c1.9,0,3.7,0,5.7,0c0,1.9,0,3.7,0,5.6c-1.9,0-3.7,0-5.6,0
		C1291.2,238.1,1291.2,236.2,1291.2,234.3C1291.2,234.3,1291.2,234.3,1291.2,234.3z"/>
	<path class="st2" d="M1328.1,245.7c-1.9,0-3.7,0-5.7,0c0-1.9,0-3.7,0-5.6c1.9,0,3.7,0,5.6,0
		C1328.1,241.9,1328.1,243.8,1328.1,245.7L1328.1,245.7z"/>
	<path class="st2" d="M1328.1,245.7c1.9,0,3.7,0,5.7,0c0,1.9,0,3.7,0,5.6c-1.9,0-3.7,0-5.6,0
		C1328.1,249.4,1328.1,247.5,1328.1,245.7C1328.1,245.7,1328.1,245.7,1328.1,245.7z"/>
</g>
<g>
	<g>
		<path class="st3" d="M701.9,122.8c0,4.3,0,8.6,0,12.9c-4.3,0-8.6,0-12.9,0c0-2.1,0-4.2,0-6.5c-2.2,0-4.3,0-6.5,0
			c0-2.2,0-4.3,0-6.4c-2.2,0-4.3,0-6.6,0c0,2.1,0,4.2,0,6.4c-2.2,0-4.3,0-6.4,0c0,2.2,0,4.3,0,6.5c-2.2,0-4.3,0-6.5,0
			c0-17.2,0-34.5,0-51.8c2.1,0,4.2,0,6.4,0c0-6.5,0-13,0-19.5c2.2,0,4.3,0,6.4,0c0-2.2,0-4.3,0-6.5c2.2,0,4.3,0,6.5,0
			c0-2.2,0-4.3,0-6.5c4.4,0,8.6,0,12.9,0c0-2.2,0-4.3,0-6.5c8.7,0,17.3,0,26,0c0,2.1,0,4.2,0,6.4c4.4,0,8.6,0,13,0
			c0,2.2,0,4.3,0,6.4c2.2,0,4.3,0,6.5,0c0,2.2,0,4.3,0,6.5c2.2,0,4.3,0,6.5,0c0,6.5,0,13,0,19.5c2.2,0,4.3,0,6.5,0
			c0,17.3,0,34.6,0,51.8c-2.1,0-4.2,0-6.4,0c0-2.1,0-4.2,0-6.4c-2.2,0-4.3,0-6.5,0c0-2.2,0-4.3,0-6.4c-2.2,0-4.3,0-6.6,0
			c0,2.1,0,4.2,0,6.4c-2.2,0-4.3,0-6.5,0c0,2.2,0,4.3,0,6.5c-4.3,0-8.6,0-12.9,0c0-4.3,0-8.6,0-12.9
			C710.6,122.8,706.3,122.8,701.9,122.8z M740.9,109.8c0-0.1,0-0.1,0-0.2c0-1.9,0-3.8,0-5.7c0-0.2,0-0.4,0-0.7c-2.5,0-5,0-7.4,0
			c-1.4,0-2.8,0-4.2,0c-0.4,0-0.8,0-1.3,0c0,2.2,0,4.3,0,6.4c-4.4,0-8.6,0-13,0c0-2.2,0-4.3,0-6.4c-4.4,0-8.6,0-13,0
			c0,1.9,0,3.7,0,5.5c0,0.3-0.2,0.6-0.2,1c-4.2,0-8.4,0-12.6,0c0-0.3-0.1-0.7-0.1-1c0-1.8,0-3.6,0-5.5c-4.4,0-8.6,0-13,0
			c0,2.2,0,4.4,0,6.5c-2.1,0-4.3,0-6.4,0c0,2.2,0,4.2,0,6.3c2.2,0,4.3,0,6.4,0c0-2.2,0-4.3,0-6.4c4.3,0,8.6,0,12.9,0
			c0,0.5,0,0.9,0.1,1.2c0,1.5,0,3,0,4.5c0.1,0.2,0.2,0.5,0.3,0.7c4.1,0,8.3,0,12.4,0c0.1-0.1,0.1-0.2,0.2-0.4c0-1.7,0-3.4,0-5.1
			c0-0.3,0.1-0.6,0.1-0.9c4.3,0,8.6,0,12.9,0c0,2.2,0,4.3,0,6.4c4.4,0,8.6,0,13,0c0-0.4,0-0.6,0-0.9c0-1.6,0-3.2,0-4.8
			c0-0.4,0.1-0.8,0.6-0.7c4,0,8.1,0,12.1,0C740.7,109.7,740.8,109.8,740.9,109.8c0,2.1,0,4.2,0,6.3c2.2,0,4.3,0,6.4,0
			c0-2.2,0-4.2,0-6.3C745.1,109.8,743,109.8,740.9,109.8z M689,90.2c4.3,0,8.6,0,12.9,0c0-4.3,0-8.6,0-12.9c-4.3,0-8.6,0-12.9,0
			C689,81.6,689,85.9,689,90.2z M715,90.2c4.3,0,8.6,0,12.9,0c0-4.3,0-8.6,0-12.9c-4.3,0-8.6,0-12.9,0C715,81.6,715,85.9,715,90.2z"
			/>
	</g>
</g>
<rect id="rect17372" x="600.4" y="427.1" class="st4" width="23.2" height="21.8"/>
<rect id="rect17372-4" x="655.6" y="427.1" class="st4" width="23.2" height="21.8"/>
<rect id="rect17372-4-4" x="710.8" y="427.1" class="st4" width="23.2" height="21.8"/>
<rect id="rect17372-4-4-3" x="766.1" y="427.1" class="st4" width="23.2" height="21.8"/>
<g>
	<path class="st0" d="M132.2,434.2c0-1.9,0-3.7,0-5.7c-1.9,0-3.8,0-5.7,0l0,0c0-1.9,0-3.8,0-5.7c1.9,0,3.8,0,5.7,0
		c1.9,0,3.8,0,5.7,0c0,1.9,0,3.7,0,5.6c1.9,0,3.7,0,5.6,0c0-1.9,0-3.7,0-5.6c-1.9,0-3.8,0-5.6,0c0-1.9,0-3.8,0-5.7
		c0.1,0,0.2,0,0.4,0c7.3,0,14.6,0,21.9,0c0.2,0,0.3,0,0.5,0c0,1.9,0,3.8,0,5.7c1.9,0,3.8,0,5.6,0c0,7.6,0,15.1,0,22.7
		c-1.9,0-3.8,0-5.7,0c0,1.9,0,3.8,0,5.6c-7.6,0-15.1,0-22.7,0c0-4.7,0-9.4,0-14.2c-1,0-1.9,0-2.8,0c0-1,0-1.9,0-2.8
		C134.1,434.2,133.1,434.2,132.2,434.2L132.2,434.2z M163.4,439.9c0-1.9,0-3.7,0-5.6c-1.9,0-3.7,0-5.6,0c0,1.9,0,3.8,0,5.7
		c-1.9,0-3.7,0-5.7,0c0,1.9,0,3.7,0,5.6c1.9,0,3.7,0,5.6,0c0-1.9,0-3.8,0-5.7C159.6,439.9,161.5,439.9,163.4,439.9z"/>
	<path class="st0" d="M115.2,439.1c0,0.2,0,0.5,0,0.7c1.9,0,3.7,0,5.7,0c0-3.8,0-7.5,0-11.3c1.9,0,3.8,0,5.7,0l0,0
		c0,1.9,0,3.7,0,5.7c1.9,0,3.8,0,5.7,0l0,0c0,7.6,0,15.1,0,22.8c-1.9,0-3.8,0-5.7,0c0,1.9,0,3.8,0,5.6c-7.6,0-15.1,0-22.7,0
		c0-1.9,0-3.8,0-5.7c-1.9,0-3.8,0-5.6,0c0-7.6,0-15.1,0-22.7c1.9,0,3.8,0,5.7,0c0-1.9,0-3.8,0-5.7c3.8,0,7.6,0,11.3,0
		C115.2,432,115.2,435.6,115.2,439.1z M126.5,451.2c0-1.9,0-3.7,0-5.6c-1.9,0-3.7,0-5.6,0c0,1.9,0,3.8,0,5.7c-1.9,0-3.7,0-5.7,0
		c0,1.9,0,3.7,0,5.6c1.9,0,3.7,0,5.6,0c0-1.9,0-3.8,0-5.7C122.7,451.2,124.6,451.2,126.5,451.2z"/>
	<path class="st1" d="M115.2,405.8c0-1.9,0-3.7,0-5.7c-3.8,0-7.5,0-11.3,0c0-1.9,0-3.8,0-5.7c-3.8,0-7.6,0-11.3,0
		c0,3.8,0,7.5,0,11.3c3.8,0,7.5,0,11.3,0c0,3.8,0,7.6,0,11.3c1.9,0,3.7,0,5.6,0c0,1.9,0,3.8,0,5.7c1.9,0,3.8,0,5.7,0c0,0,0,0,0,0
		c0-2.5,0-4.9,0-7.4c0-1.3,0-2.7,0-4l0,0c-1.9,0-3.8,0-5.6,0c0-1.9,0-3.8,0-5.7C111.5,405.8,113.3,405.8,115.2,405.8L115.2,405.8z"
		/>
	<path class="st1" d="M115.2,428.5c0,3.5,0,7.1,0,10.6c0,0.2,0,0.5,0,0.7c1.9,0,3.7,0,5.7,0c0-3.8,0-7.5,0-11.3c0-1.9,0-3.7,0-5.7
		c-1.9,0-3.8,0-5.7,0c0,0,0,0,0,0C115.2,424.7,115.2,426.6,115.2,428.5z"/>
	<path class="st1" d="M115.2,411.5c3.8,0,7.5,0,11.3,0c0-1.9,0-3.8,0-5.7c-3.8,0-7.6,0-11.3,0l0,0
		C115.2,407.7,115.2,409.6,115.2,411.5L115.2,411.5z"/>
	<path class="st1" d="M132.2,422.8c1.9,0,3.8,0,5.7,0l0,0c0-1.9,0-3.8,0-5.7c-1.9,0-3.8,0-5.7,0l0,0
		C132.2,419,132.2,420.9,132.2,422.8z"/>
	<path class="st1" d="M132.2,417.2c0-1.9,0-3.7,0-5.7c-0.4,0-0.7,0-1.1,0c-1.3,0-2.5,0-3.8,0c-0.5,0-0.7,0.1-0.7,0.7
		c0,1.4,0,2.9-0.1,4.3c0,0.2,0,0.4,0,0.6C128.5,417.2,130.3,417.2,132.2,417.2C132.2,417.2,132.2,417.2,132.2,417.2z"/>
	<path class="st1" d="M137.9,422.8c0,1.9,0,3.7,0,5.6c1.9,0,3.7,0,5.6,0c0-1.9,0-3.7,0-5.6C141.7,422.8,139.8,422.8,137.9,422.8
		C137.9,422.8,137.9,422.8,137.9,422.8z"/>
	<path class="st2" d="M157.8,439.9c1.9,0,3.7,0,5.7,0c0-1.9,0-3.7,0-5.6c-1.9,0-3.7,0-5.6,0C157.8,436.1,157.8,438,157.8,439.9
		L157.8,439.9z"/>
	<path class="st2" d="M157.8,439.9c-1.9,0-3.7,0-5.7,0c0,1.9,0,3.7,0,5.6c1.9,0,3.7,0,5.6,0C157.8,443.6,157.8,441.8,157.8,439.9
		C157.8,439.9,157.8,439.9,157.8,439.9z"/>
	<path class="st2" d="M120.9,451.2c1.9,0,3.7,0,5.7,0c0-1.9,0-3.7,0-5.6c-1.9,0-3.7,0-5.6,0C120.9,447.5,120.9,449.4,120.9,451.2
		L120.9,451.2z"/>
	<path class="st2" d="M120.9,451.3c-1.9,0-3.7,0-5.7,0c0,1.9,0,3.7,0,5.6c1.9,0,3.7,0,5.6,0C120.9,455,120.9,453.1,120.9,451.3
		C120.9,451.2,120.9,451.3,120.9,451.3z"/>
</g>
<g>
	<g>
		<rect x="119.2" y="77.9" class="st5" width="12.7" height="12.8"/>
		<rect x="157.3" y="77.9" class="st5" width="12.7" height="12.8"/>
	</g>
	<rect x="163.7" y="65.1" class="st6" width="6.4" height="6.4"/>
	<path class="st6" d="M170,84.3v6.4h-6.4v6.4c-3.2,0-9.5,0-12.7,0v-6.4h-6.4V71.5h6.4v-6.4c3.2,0,9.5,0,12.7,0v-6.4h-6.4v-6.4
		c-3.2,0-9.5,0-12.7,0v-6.4c-8,0-17.5,0-25.4,0v6.4c-3.2,0-9.5,0-12.7,0v6.4h-6.4v6.4h-6.4c0,5.7,0,13.5,0,19.2h-6.4
		c0,16.8,0,34.3,0,51.1h6.4V129h6.4v-6.4h6.4v6.4h6.4v6.4c3.2,0,9.5,0,12.7,0c0-3.2,0-9.6,0-12.8h12.7c0,3.2,0,9.6,0,12.8
		c3.2,0,9.5,0,12.7,0V129h6.4v-6.4h6.4v6.4h6.4v6.4h6.4c0-16.8,0-34.3,0-51.1H170z M131.9,90.7h-6.4v6.4c-3.2,0-9.5,0-12.7,0v-6.4
		h-6.4c0-5.7,0-13.5,0-19.2h6.4v-6.4c3.2,0,9.5,0,12.7,0v6.4h6.4V90.7z"/>
</g>
<g>
	<g>
		<rect x="873.6" y="423.7" class="st5" width="13.4" height="13.4"/>
		<rect x="833.6" y="423.7" class="st5" width="13.4" height="13.4"/>
	</g>
	
		<rect x="833.6" y="410.3" transform="matrix(-1 4.491018e-11 -4.491018e-11 -1 1673.7867 827.2308)" class="st7" width="6.7" height="6.7"/>
	<path class="st7" d="M826.9,430.4c0,17.7,0,36.1,0,53.8h6.7v-6.7h6.7v-6.7h6.7v6.7h6.7v6.7c3.3,0,10,0,13.4,0c0-3.3,0-10.1,0-13.4
		h13.4c0,3.3,0,10.1,0,13.4c3.3,0,10,0,13.4,0v-6.7h6.7v-6.7h6.7v6.7h6.7v6.7h6.7c0-17.7,0-36.1,0-53.8h-6.7c0-6,0-14.2,0-20.2h-6.7
		v-6.7h-6.7v-6.7c-3.3,0-10,0-13.4,0v-6.7c-8.4,0-18.4,0-26.7,0v6.7c-3.3,0-10,0-13.4,0v6.7h-6.7v6.7c3.3,0,10,0,13.4,0v6.7h6.7
		v20.2h-6.7v6.7c-3.3,0-10,0-13.4,0v-6.7h-6.7v-6.7H826.9z M873.6,417h6.7v-6.7c3.3,0,10,0,13.4,0v6.7h6.7c0,6,0,14.2,0,20.2h-6.7
		v6.7c-3.3,0-10,0-13.4,0v-6.7h-6.7V417z"/>
</g>
<g>
	<g>
		<rect x="1031.8" y="423.7" class="st5" width="13.4" height="13.4"/>
		<rect x="991.7" y="423.7" class="st5" width="13.4" height="13.4"/>
	</g>
	
		<rect x="991.7" y="410.3" transform="matrix(-1 4.491018e-11 -4.491018e-11 -1 1990.0027 827.2308)" class="st8" width="6.7" height="6.7"/>
	<path class="st8" d="M985,430.4c0,17.7,0,36.1,0,53.8h6.7v-6.7h6.7v-6.7h6.7v6.7h6.7v6.7c3.3,0,10,0,13.4,0c0-3.3,0-10.1,0-13.4
		h13.4c0,3.3,0,10.1,0,13.4c3.3,0,10,0,13.4,0v-6.7h6.7v-6.7h6.7v6.7h6.7v6.7h6.7c0-17.7,0-36.1,0-53.8h-6.7c0-6,0-14.2,0-20.2h-6.7
		v-6.7h-6.7v-6.7c-3.3,0-10,0-13.4,0v-6.7c-8.4,0-18.4,0-26.7,0v6.7c-3.3,0-10,0-13.4,0v6.7h-6.7v6.7c3.3,0,10,0,13.4,0v6.7h6.7
		v20.2h-6.7v6.7c-3.3,0-10,0-13.4,0v-6.7h-6.7v-6.7H985z M1031.8,417h6.7v-6.7c3.3,0,10,0,13.4,0v6.7h6.7c0,6,0,14.2,0,20.2h-6.7
		v6.7c-3.3,0-10,0-13.4,0v-6.7h-6.7V417z"/>
</g>
<g>
	<g>
		<rect x="1188.1" y="423.7" class="st9" width="13.4" height="13.4"/>
		<rect x="1148" y="423.7" class="st9" width="13.4" height="13.4"/>
	</g>
	
		<rect x="1148" y="410.3" transform="matrix(-1 4.491018e-11 -4.491018e-11 -1 2302.5959 827.2308)" class="st10" width="6.7" height="6.7"/>
	<path class="st10" d="M1141.3,430.4c0,17.7,0,36.1,0,53.8h6.7v-6.7h6.7v-6.7h6.7v6.7h6.7v6.7c3.3,0,10,0,13.4,0
		c0-3.3,0-10.1,0-13.4h13.4c0,3.3,0,10.1,0,13.4c3.3,0,10,0,13.4,0v-6.7h6.7v-6.7h6.7v6.7h6.7v6.7h6.7c0-17.7,0-36.1,0-53.8h-6.7
		c0-6,0-14.2,0-20.2h-6.7v-6.7h-6.7v-6.7c-3.3,0-10,0-13.4,0v-6.7c-8.4,0-18.4,0-26.7,0v6.7c-3.3,0-10,0-13.4,0v6.7h-6.7v6.7
		c3.3,0,10,0,13.4,0v6.7h6.7v20.2h-6.7v6.7c-3.3,0-10,0-13.4,0v-6.7h-6.7v-6.7H1141.3z M1188.1,417h6.7v-6.7c3.3,0,10,0,13.4,0v6.7
		h6.7c0,6,0,14.2,0,20.2h-6.7v6.7c-3.3,0-10,0-13.4,0v-6.7h-6.7V417z"/>
</g>
<polygon class="st4" points="563.1,405.8 563.1,398.6 555.8,398.6 548.6,398.6 548.6,391.3 541.3,391.3 534.1,391.3 526.8,391.3 
	519.6,391.3 512.3,391.3 512.3,398.6 505.1,398.6 497.8,398.6 497.8,405.8 490.5,405.8 490.5,413.1 490.5,420.4 483.3,420.4 
	483.3,427.6 483.3,434.9 483.3,442.1 483.3,449.4 483.3,456.6 490.5,456.6 490.5,463.9 490.5,471.1 497.8,471.1 497.8,478.4 
	505.1,478.4 512.3,478.4 512.3,485.6 519.6,485.6 526.8,485.6 534.1,485.6 541.3,485.6 548.6,485.6 548.6,478.4 555.8,478.4 
	563.1,478.4 563.1,471.1 570.3,471.1 570.3,463.9 570.3,456.6 563.1,456.6 555.8,456.6 555.8,449.4 548.6,449.4 541.3,449.4 
	534.1,449.4 534.1,442.1 526.8,442.1 519.6,442.1 519.6,434.9 526.8,434.9 534.1,434.9 534.1,427.6 541.3,427.6 548.6,427.6 
	555.8,427.6 555.8,420.4 563.1,420.4 570.3,420.4 570.3,413.1 570.3,405.8 "/>
<g>
	<g>
		<path class="st11" d="M246.2,454.5c2.5-2.8,4.8-5.7,7.4-8.3c14.8-14.8,29.7-29.6,44.5-44.4c17.3-17.3,34.6-34.5,51.8-51.8
			c1.1-1.1,2.1-2.9,2.1-4.4c0.1-26.6,0-53.2,0-79.8c0-0.4-0.1-0.7-0.4-2.2c-35.3,35-70.2,69.5-105.6,104.6c0-41.5,0-82.3,0-124
			c-1.4,1-2.3,1.5-3,2.2c-22.5,22.5-45.1,45-67.6,67.5c-14.6,14.6-29.2,29.4-44,43.9c-1.3,1.3-3.7,2.2-5.6,2.2
			c-35.7,0.2-71.5,0.2-107.3,0.2c-1.1,0-2.1-0.2-4-0.3c96.3-95.6,192-190.5,287.3-285c0,39.1,0,79.7,0,120.2
			c0.3,0.2,0.6,0.3,0.9,0.5c41.1-41,82.1-82,123.2-123c0.3,0.1,0.6,0.3,0.9,0.4c0,65.9,0,131.8,0,197.7c0.4,0.2,0.8,0.4,1.2,0.7
			C494.5,205.2,561,139,627.5,72.9c0.3,0.1,0.6,0.2,0.9,0.2c0,74.3,0,148.7,0,223c0.4,0.2,0.8,0.4,1.3,0.6
			C704.4,222,779.1,147.4,854.6,72c0,42.2,0,83.3,0,124.6c41.5-41.4,82.7-82.4,123.9-123.5c0.5,0.2,1,0.3,1.5,0.5
			c0,63.2,0,126.4,0,189.6c0.4,0.1,0.9,0.3,1.3,0.4c0.9-0.8,1.8-1.5,2.6-2.3c16.8-16.9,33.6-33.8,50.5-50.7
			c19.4-19.4,39-38.7,58.4-58.1c16.3-16.3,32.6-32.7,48.8-49.1c7.7-7.8,15.5-15.5,23.2-23.3c1.9-2,4-2.9,6.9-2.9
			c70.3,0.1,140.5,0.1,210.8,0.1c1.2,0,2.3,0.2,4.2,0.3c-1,1.3-1.4,2-1.9,2.5c-13.9,14-27.8,27.9-41.8,41.8
			c-7.9,7.9-15.8,16-23.9,23.7c-1.4,1.4-3.8,2.4-5.8,2.4c-12.9,0.2-25.7,0.1-38.6,0.2c-21.4,0.1-42.7,0.4-64.1,0.4
			c-4,0-6.8,0.8-9.8,4c-7.5,8.1-15.7,15.7-23.6,23.5c-0.7,0.7-1.4,1.6-2.9,3.4c19.6,0,38,0,56.4,0c0.1,0.3,0.2,0.6,0.3,0.9
			c-1.5,1.6-3,3.2-4.5,4.7c-22,22-43.9,44-66.1,65.8c-1.5,1.5-4.1,2.5-6.1,2.5c-17.5,0.2-35,0.1-52.5,0.3c-1.9,0-4.3,1.1-5.7,2.5
			c-9.3,9-18.4,18.3-27.6,27.4c-0.6,0.6-1.2,1.4-2.5,3c64.4,0,127.8,0,191.1,0c0.4,0.6,0.8,1.3,1.3,1.9c-1.2,0.6-2.7,1-3.7,1.9
			c-16.7,16.5-33.3,33.1-49.9,49.7c-5.5,5.5-11,10.9-16.4,16.4c-2,2-4,2.9-6.9,2.9c-79.1,0.1-158.2,0.3-237.4,0.4
			c-17.6,0-35.3,0-52.9,0.1c-1.3,0-2.6-0.1-3.6-0.2c4.6-5,8.8-10,13.6-14.5c3.1-2.9,4.4-5.7,4.4-10c-0.2-23,0-45.9,0-68.9
			c0-1.1,0-2.2,0-2.3c-34.9,34.2-70.2,68.8-105.6,103.4c-0.3-0.1-0.7-0.2-1-0.3c0-40.3,0-80.5,0-120.8c-0.4-0.2-0.8-0.3-1.2-0.5
			c-4.2,4.3-8.4,8.7-12.7,13c-27.6,27.5-55.2,55.1-82.7,82.6c-6.1,6.1-12.1,12.2-18.4,18.2c-1.3,1.2-3.4,2.2-5.2,2.2
			c-40.7,0.2-81.5,0.2-122.3,0.4c-3.4,0-3.5-1.6-3.5-4.1c0-29.8,0-59.7,0-89.5c0-1.4,0-2.8,0-4.3c-0.3-0.1-0.7-0.3-1-0.4
			c-2.7,2.7-5.4,5.4-8.1,8c-6.7,6.7-13.5,13.4-20.1,20.1c-7.2,7.3-14.3,14.6-21.6,21.8c-20.5,20.3-41,40.6-61.4,60.9
			c-25.7,25.6-51.2,51.2-76.8,76.8c-0.9,0.9-1.6,1.9-2.4,2.8C323.2,454.5,284.7,454.5,246.2,454.5z"/>
	</g>
</g>
<rect class="st12" width="12.8" height="10.1"/>
<path class="st13" d="M317.6,287.1c-21.9,0-39.7,17.8-39.7,39.7c0,21.9,17.8,39.7,39.7,39.7c21.9,0,39.7-17.8,39.7-39.7
	C357.3,304.8,339.6,287.1,317.6,287.1z M317.6,165.2c-21.9,0-39.7,17.8-39.7,39.7s17.8,39.7,39.7,39.7c21.9,0,39.7-17.8,39.7-39.7
	S339.6,165.2,317.6,165.2z M431.4,227.4c-21.9,0-39.7,17.8-39.7,39.7c0,21.9,17.8,39.7,39.7,39.7c21.9,0,39.7-17.8,39.7-39.7
	C471.1,245.2,453.4,227.4,431.4,227.4z M431.4,105.5c-21.9,0-39.7,17.8-39.7,39.7c0,21.9,17.8,39.7,39.7,39.7
	c21.9,0,39.7-17.8,39.7-39.7C471.1,123.3,453.4,105.5,431.4,105.5z M547.7,227.4c-21.9,0-39.7,17.8-39.7,39.7
	c0,21.9,17.8,39.7,39.7,39.7s39.7-17.8,39.7-39.7C587.3,245.2,569.6,227.4,547.7,227.4z M547.7,105.5c-21.9,0-39.7,17.8-39.7,39.7
	c0,21.9,17.8,39.7,39.7,39.7s39.7-17.8,39.7-39.7C587.3,123.3,569.6,105.5,547.7,105.5z M1027,287.1c-21.9,0-39.7,17.8-39.7,39.7
	c0,21.9,17.8,39.7,39.7,39.7c21.9,0,39.7-17.8,39.7-39.7C1066.7,304.8,1049,287.1,1027,287.1z M1027,165.2
	c-21.9,0-39.7,17.8-39.7,39.7c0,21.9,17.8,39.7,39.7,39.7c21.9,0,39.7-17.8,39.7-39.7C1066.7,182.9,1049,165.2,1027,165.2z
	 M1140.8,227.4c-21.9,0-39.7,17.8-39.7,39.7c0,21.9,17.8,39.7,39.7,39.7s39.7-17.8,39.7-39.7
	C1180.5,245.2,1162.8,227.4,1140.8,227.4z M1140.8,105.5c-21.9,0-39.7,17.8-39.7,39.7c0,21.9,17.8,39.7,39.7,39.7
	s39.7-17.8,39.7-39.7C1180.5,123.3,1162.8,105.5,1140.8,105.5z M1257.1,227.4c-21.9,0-39.7,17.8-39.7,39.7
	c0,21.9,17.8,39.7,39.7,39.7c21.9,0,39.7-17.8,39.7-39.7C1296.7,245.2,1279,227.4,1257.1,227.4z M1257.1,105.5
	c-21.9,0-39.7,17.8-39.7,39.7c0,21.9,17.8,39.7,39.7,39.7c21.9,0,39.7-17.8,39.7-39.7C1296.7,123.3,1279,105.5,1257.1,105.5z
	 M150.4,248.6c-11.7,0-21.3,9.5-21.3,21.3c0,11.7,9.5,21.3,21.3,21.3s21.3-9.5,21.3-21.3C171.7,258.1,162.2,248.6,150.4,248.6z
	 M859.9,247.9c-11.7,0-21.3,9.5-21.3,21.3c0,11.7,9.5,21.3,21.3,21.3c11.7,0,21.3-9.5,21.3-21.3
	C881.1,257.5,871.6,247.9,859.9,247.9z M22.7,34.7c-2.7,0-5,2.2-5,5s2.2,5,5,5s5-2.2,5-5S25.4,34.7,22.7,34.7z M451.7,34.7
	c-2.7,0-5,2.2-5,5s2.2,5,5,5s5-2.2,5-5S454.4,34.7,451.7,34.7z M965.7,34.7c-2.7,0-5,2.2-5,5s2.2,5,5,5c2.7,0,5-2.2,5-5
	S968.4,34.7,965.7,34.7z M1394.6,34.7c-2.7,0-5,2.2-5,5s2.2,5,5,5c2.7,0,5-2.2,5-5S1397.4,34.7,1394.6,34.7z M27.6,506.3
	c0-2.7-2.2-5-5-5s-5,2.2-5,5s2.2,5,5,5S27.6,509,27.6,506.3z M456.6,506.3c0-2.7-2.2-5-5-5s-5,2.2-5,5s2.2,5,5,5
	S456.6,509,456.6,506.3z M970.6,506.3c0-2.7-2.2-5-5-5c-2.7,0-5,2.2-5,5s2.2,5,5,5C968.4,511.2,970.6,509,970.6,506.3z
	 M1399.6,506.3c0-2.7-2.2-5-5-5c-2.7,0-5,2.2-5,5s2.2,5,5,5C1397.4,511.2,1399.6,509,1399.6,506.3z"/>
</svg>
